<svg width="106" height="32" viewBox="0 0 106 32" fill="none" xmlns="http://www.w3.org/2000/svg">
<path d="M33.0254 29.225H28.2883V18.1709C28.2883 15.1119 29.3657 12.5051 31.5204 10.3488C33.6752 8.19408 36.282 7.1167 39.3425 7.1167C42.403 7.1167 45.0098 8.19408 47.1645 10.3488C49.3193 12.5051 50.3967 15.1119 50.3967 18.1709V29.225H45.6596V18.1709C45.6596 16.4269 45.0435 14.9387 43.8083 13.7051C42.5746 12.4714 41.085 11.8553 39.3425 11.8553C37.6 11.8553 36.1104 12.4714 34.8767 13.7051C33.643 14.9387 33.0254 16.4269 33.0254 18.1709V29.225Z" fill="black" stroke="black" stroke-width="0.153253" stroke-miterlimit="10"/>
<path d="M56.875 0.799805V29.2252H52.1379V0.799805H56.875Z" fill="black" stroke="black" stroke-width="0.153253" stroke-miterlimit="10"/>
<path d="M65.2042 22.6367C66.4379 23.8704 67.926 24.488 69.67 24.488C71.414 24.488 72.9021 23.8719 74.1358 22.6367L74.1603 22.6122L77.5166 25.9684L77.4921 25.9929C75.3373 28.1492 72.7305 29.225 69.67 29.225C66.6095 29.225 64.0027 28.1477 61.848 25.9929C59.6932 23.8382 58.6158 21.2314 58.6158 18.1709C58.6158 15.1104 59.6932 12.5051 61.848 10.3488C64.0027 8.19408 66.6095 7.1167 69.67 7.1167C72.7305 7.1167 75.3373 8.19408 77.4921 10.3488C79.6468 12.5051 80.7242 15.1119 80.7242 18.1709C80.7242 18.6981 80.6751 19.2237 80.5755 19.7509H63.5506C63.8127 20.836 64.3644 21.7984 65.2042 22.6367ZM74.1358 13.7051C72.9021 12.4714 71.4125 11.8553 69.67 11.8553C67.9275 11.8553 66.4379 12.4714 65.2042 13.7051C64.7935 14.1158 64.4548 14.5526 64.1927 15.0123H75.1488C74.8852 14.5526 74.5481 14.1158 74.1373 13.7051H74.1358Z" fill="black" stroke="black" stroke-width="0.153253" stroke-miterlimit="10"/>
<path d="M89.0552 22.6367C90.2888 23.8704 91.7769 24.488 93.521 24.488C95.265 24.488 96.7531 23.8719 97.9868 22.6367L98.0113 22.6122L101.368 25.9684L101.343 25.9929C99.1883 28.1492 96.5814 29.225 93.521 29.225C90.4605 29.225 87.8536 28.1477 85.6989 25.9929C83.5442 23.8382 82.4668 21.2314 82.4668 18.1709C82.4668 15.1104 83.5442 12.5051 85.6989 10.3488C87.8536 8.19408 90.4605 7.1167 93.521 7.1167C96.5814 7.1167 99.1883 8.19408 101.343 10.3488C103.498 12.5051 104.575 15.1119 104.575 18.1709C104.575 18.6981 104.526 19.2237 104.426 19.7509H87.4015C87.6636 20.836 88.2153 21.7984 89.0552 22.6367ZM97.9868 13.7051C96.7531 12.4714 95.2635 11.8553 93.521 11.8553C91.7785 11.8553 90.2888 12.4714 89.0552 13.7051C88.6444 14.1158 88.3058 14.5526 88.0437 15.0123H98.9998C98.7362 14.5526 98.399 14.1158 97.9883 13.7051H97.9868Z" fill="black" stroke="black" stroke-width="0.153253" stroke-miterlimit="10"/>
<path d="M13.7737 30.9448C20.8284 30.9448 26.5473 25.2258 26.5473 18.1711C26.5473 11.1164 20.8284 5.39746 13.7737 5.39746C6.71896 5.39746 1 11.1164 1 18.1711C1 25.2258 6.71896 30.9448 13.7737 30.9448Z" fill="url(#paint0_linear_42_306)"/>
<defs>
<linearGradient id="paint0_linear_42_306" x1="3.84592" y1="26.2108" x2="23.6999" y2="10.133" gradientUnits="userSpaceOnUse">
<stop stop-color="#FEB800"/>
<stop offset="0.02" stop-color="#FEB300"/>
<stop offset="0.18" stop-color="#FE9500"/>
<stop offset="0.35" stop-color="#FE7E00"/>
<stop offset="0.54" stop-color="#FE6D00"/>
<stop offset="0.74" stop-color="#FE6400"/>
<stop offset="1" stop-color="#FF6100"/>
</linearGradient>
</defs>
</svg>
